<?xml version="1.0" standalone="yes"?>

<svg version="1.1" viewBox="0.0 0.0 616.6036745406824 142.86351706036746" fill="none" stroke="none" stroke-linecap="square" stroke-miterlimit="10" xmlns="http://www.w3.org/2000/svg" xmlns:xlink="http://www.w3.org/1999/xlink"><clipPath id="p.0"><path d="m0 0l616.6037 0l0 142.86351l-616.6037 0l0 -142.86351z" clip-rule="nonzero"></path></clipPath><g clip-path="url(#p.0)"><path fill="#000000" fill-opacity="0.0" d="m0 0l616.6037 0l0 142.86351l-616.6037 0z" fill-rule="evenodd"></path><g filter="url(#shadowFilter-p.1)"><use xlink:href="#p.1" transform="matrix(1.0 0.0 0.0 1.0 1.0300761545736958 1.714334643106135)"></use></g><defs><filter id="shadowFilter-p.1" filterUnits="userSpaceOnUse"><feGaussianBlur in="SourceAlpha" stdDeviation="3.0" result="blur"></feGaussianBlur><feComponentTransfer in="blur" color-interpolation-filters="sRGB"><feFuncR type="linear" slope="0" intercept="0.0"></feFuncR><feFuncG type="linear" slope="0" intercept="0.0"></feFuncG><feFuncB type="linear" slope="0" intercept="0.0"></feFuncB><feFuncA type="linear" slope="0.89" intercept="0"></feFuncA></feComponentTransfer></filter></defs><g id="p.1"><path fill="#000000" fill-opacity="0.0" d="m0 0l627.1181 0l0 158.29921l-627.1181 0z" fill-rule="evenodd"></path><path fill="#ffffff" d="m33.859375 101.159996l-15.359375 0l0 -67.203125l11.71875 0q12.671875 0 19.09375 4.65625q6.4375 4.65625 6.4375 13.109375q0 9.59375 -8.0625 14.109375q11.71875 4.421875 11.71875 16.609375q0 8.640625 -6.34375 13.6875q-6.328125 5.03125 -19.203125 5.03125zm0 -2.875q4.515625 0 8.25 -0.71875q3.75 -0.71875 7.15625 -2.40625q3.421875 -1.6875 5.328125 -4.9375q1.921875 -3.265625 1.921875 -7.78125q0 -10.265625 -9.890625 -13.921875l-5.75 -2.109375l5.375 -3.078125q6.625 -3.640625 6.625 -11.609375q0 -14.875 -22.65625 -14.875l-8.828125 0l0 61.4375l12.46875 0zm71.912094 0l0 2.875l-32.0625 0l0 -55.6875l2.875 0l0 52.8125l29.1875 0zm39.072723 -49.875q-3.265625 -1.015625 -8.078125 -1.015625q-4.796875 0 -8.0625 1.015625q-3.25 1.0 -6.0 3.75q-2.734375 2.734375 -4.078125 7.96875q-1.34375 5.21875 -1.34375 13.1875q0 7.96875 1.34375 13.203125q1.34375 5.234375 4.078125 7.96875q2.75 2.734375 6.0 3.75q3.265625 1.0 8.0625 1.0q4.8125 0 8.078125 -1.0q3.265625 -1.015625 6.0 -3.75q2.734375 -2.734375 4.078125 -7.96875q1.34375 -5.234375 1.34375 -13.203125q0 -7.96875 -1.34375 -13.1875q-1.34375 -5.234375 -4.078125 -7.96875q-2.734375 -2.75 -6.0 -3.75zm9.109375 46.890625q-5.171875 6.8125 -17.171875 6.8125q-12.0 0 -17.1875 -6.8125q-5.1875 -6.8125 -5.1875 -21.984375q0 -15.171875 5.1875 -21.984375q5.1875 -6.8125 17.1875 -6.8125q12.0 0 17.171875 6.8125q5.1875 6.8125 5.1875 21.984375q0 15.171875 -5.1875 21.984375zm23.816605 0q-5.1875 -6.8125 -5.1875 -21.984375q0 -15.171875 5.1875 -21.984375q5.1875 -6.8125 17.1875 -6.8125q12.0 0 17.28125 6.625l-2.125 1.921875q-4.21875 -5.671875 -15.15625 -5.671875q-4.8125 0 -8.078125 1.015625q-3.25 1.0 -6.0 3.75q-2.734375 2.734375 -4.078125 7.96875q-1.34375 5.21875 -1.34375 13.1875q0 7.96875 1.34375 13.203125q1.34375 5.234375 4.078125 7.96875q2.75 2.734375 6.0 3.75q3.265625 1.0 8.078125 1.0q10.9375 0 15.15625 -5.65625l2.125 1.921875q-5.28125 6.609375 -17.28125 6.609375q-12.0 0 -17.1875 -6.8125zm48.77072 5.859375l0 -55.6875l2.875 0l0 55.6875l-2.875 0zm35.515625 0l-29.5625 -29.375l26.484375 -26.3125l4.140625 0l-26.5 26.3125l29.5625 29.375l-4.125 0zm16.705597 -5.859375q-5.1875 -6.8125 -5.1875 -21.984375q0 -15.171875 5.1875 -21.984375q5.1875 -6.8125 17.1875 -6.8125q12.0 0 17.28125 6.625l-2.125 1.921875q-4.21875 -5.671875 -15.15625 -5.671875q-4.8125 0 -8.078125 1.015625q-3.25 1.0 -6.0 3.75q-2.734375 2.734375 -4.078125 7.96875q-1.34375 5.21875 -1.34375 13.1875q0 7.96875 1.34375 13.203125q1.34375 5.234375 4.078125 7.96875q2.75 2.734375 6.0 3.75q3.265625 1.0 8.078125 1.0q10.9375 0 15.15625 -5.65625l2.125 1.921875q-5.28125 6.609375 -17.28125 6.609375q-12.0 0 -17.1875 -6.8125zm83.33322 5.859375l-2.890625 0l0 -27.84375l-28.796875 0l0 27.84375l-2.875 0l0 -55.6875l2.875 0l0 24.96875l28.796875 0l0 -24.96875l2.890625 0l0 55.6875zm23.315613 -2.875l31.296875 0l-19.671875 -46.375l-20.9375 49.25l-3.0625 0l24.0 -56.640625l24.0 56.640625l-35.625 0l0 -2.875zm46.569855 -52.8125l2.875 0l0 55.6875l-2.875 0l0 -55.6875zm21.119995 55.6875l0 -55.6875l2.875 0l31.296875 50.40625l0 -50.40625l2.875 0l0 55.6875l-2.875 0l-31.296875 -50.5l0 50.5l-2.875 0zm53.749115 -5.5625l6.34375 0l0 5.5625l-6.34375 0l0 -5.5625zm15.363342 9.3125q2.59375 12.5625 14.875 12.5625q7.96875 0 10.5625 -4.46875q2.59375 -4.453125 2.59375 -13.0l0 -54.53125l2.890625 0l0 54.53125q0 2.6875 -0.109375 4.3125q-0.09375 1.640625 -0.484375 4.421875q-0.375 2.796875 -1.4375 4.46875q-1.046875 1.6875 -2.734375 3.546875q-1.671875 1.875 -4.5625 2.734375q-2.875 0.875 -6.71875 0.875q-15.0625 0 -18.328125 -15.453125l3.453125 0zm63.847046 -60.578125q11.90625 0 16.890625 5.28125l-1.921875 2.109375q-4.609375 -4.515625 -14.59375 -4.515625q-14.96875 0 -14.96875 11.90625q0 4.609375 3.640625 7.34375q3.65625 2.734375 8.875 4.171875q5.234375 1.4375 10.46875 3.03125q5.234375 1.578125 8.875 5.09375q3.65625 3.5 3.65625 9.15625q0 6.625 -5.46875 10.5625q-5.46875 3.9375 -15.84375 3.9375q-5.078125 0 -10.03125 -1.34375q-4.9375 -1.34375 -7.34375 -3.9375l1.921875 -2.109375q4.890625 4.515625 15.078125 4.515625q9.3125 0 14.0625 -3.453125q4.75 -3.46875 4.75 -8.078125q0 -4.796875 -3.65625 -7.765625q-3.640625 -2.984375 -8.875 -4.46875q-5.234375 -1.484375 -10.46875 -3.0625q-5.234375 -1.59375 -8.875 -4.953125q-3.640625 -3.359375 -3.640625 -8.828125q0 -7.390625 4.9375 -10.984375q4.9375 -3.609375 12.53125 -3.609375z" fill-rule="nonzero"></path></g></g></svg>

