<?xml version="1.0" standalone="yes"?>

<svg version="1.1" viewBox="0.0 0.0 566.6981627296587 225.86089238845145" fill="none" stroke="none" stroke-linecap="square" stroke-miterlimit="10" xmlns="http://www.w3.org/2000/svg" xmlns:xlink="http://www.w3.org/1999/xlink"><clipPath id="p.0"><path d="m0 0l566.6982 0l0 225.86089l-566.6982 0l0 -225.86089z" clip-rule="nonzero"></path></clipPath><g clip-path="url(#p.0)"><path fill="#000000" fill-opacity="0.0" d="m0 0l566.6982 0l0 225.86089l-566.6982 0z" fill-rule="evenodd"></path><path fill="#e69138" d="m0 53.06866l0 0c0 -11.556175 9.36813 -20.924305 20.924303 -20.924305l83.6947 0l0 0c5.549469 0 10.871651 2.2045212 14.795715 6.128586c3.9240723 3.9240685 6.128586 9.246246 6.128586 14.795719l0 131.03328c0 11.556168 -9.368126 20.924301 -20.924301 20.924301l-83.6947 0c-11.556173 0 -20.924303 -9.368134 -20.924303 -20.924301z" fill-rule="evenodd"></path><path stroke="#000000" stroke-width="1.0" stroke-linejoin="round" stroke-linecap="butt" d="m0 53.06866l0 0c0 -11.556175 9.36813 -20.924305 20.924303 -20.924305l83.6947 0l0 0c5.549469 0 10.871651 2.2045212 14.795715 6.128586c3.9240723 3.9240685 6.128586 9.246246 6.128586 14.795719l0 131.03328c0 11.556168 -9.368126 20.924301 -20.924301 20.924301l-83.6947 0c-11.556173 0 -20.924303 -9.368134 -20.924303 -20.924301z" fill-rule="evenodd"></path><path fill="#000000" fill-opacity="0.0" d="m29.606298 47.545933l66.3307 0l0 101.82677l-66.3307 0z" fill-rule="evenodd"></path><path fill="#000000" d="m85.618286 124.612175q0 3.9375076 -1.640625 7.2968826q-1.625 3.359375 -4.40625 6.09375q-2.78125 2.734375 -6.484375 4.796875q-3.6875 2.0625 -7.765625 3.453125q-4.078125 1.390625 -8.359375 2.125q-4.265625 0.71875 -8.203125 0.71875q-3.5625 0 -6.625 -0.578125q4.609375 -16.796875 7.34375 -33.843758q2.734375 -17.046875 5.234375 -34.328125q4.984375 -1.046875 10.359375 -1.859375q5.375 -0.828125 11.140625 -0.828125q2.40625 0 5.09375 0.578125q2.6875 0.578125 4.890625 2.125q2.203125 1.53125 3.6875 4.03125q1.5 2.484375 1.5 6.328125q0 3.640625 -1.203125 6.8125q-1.203125 3.171875 -3.078125 5.765625q-1.859375 2.59375 -4.265625 4.46875q-2.40625 1.859375 -4.890625 2.828125q1.234375 0.671875 2.578125 1.921875q1.34375 1.25 2.5 2.9375q1.15625 1.671875 1.875 3.984375q0.71875 2.296875 0.71875 5.171875zm-21.984375 -9.984375q-0.375 2.296875 -0.71875 4.078125q-0.328125 1.78125 -0.625 3.421875q-0.28125 1.625 -0.625 3.40625q-0.328125 1.765625 -0.71875 4.1562576q1.828125 -0.1875 4.125 -0.65625q2.3125 -0.484375 4.421875 -1.4843826q2.109375 -1.015625 3.546875 -2.6875q1.4375 -1.6875 1.4375 -4.09375q0 -1.71875 -0.90625 -2.875q-0.90625 -1.15625 -2.3125 -1.921875q-1.390625 -0.765625 -3.015625 -1.09375q-1.625 -0.34375 -3.078125 -0.34375q-0.46875 0 -0.8125 0q-0.328125 0 -0.71875 0.09375zm4.328125 -23.234375q-0.203125 1.0625 -0.4375 2.5q-0.234375 1.4375 -0.53125 3.03125q-0.28125 1.578125 -0.625 3.109375q-0.328125 1.53125 -0.53125 2.6875q2.125 -0.390625 4.234375 -1.0625q2.109375 -0.671875 3.78125 -1.484375q1.6875 -0.8125 2.6875 -1.765625q1.015625 -0.96875 1.015625 -2.125q0 -1.4375 -0.875 -2.34375q-0.859375 -0.921875 -2.25 -1.484375q-1.390625 -0.578125 -2.875 -0.8125q-1.484375 -0.25 -2.640625 -0.25l-0.953125 0z" fill-rule="nonzero"></path><path fill="#45818e" d="m303.1706 45.966297l0 0c0 -11.556171 9.368134 -20.924303 20.924316 -20.924303l83.6947 0l0 0c5.549469 0 10.871643 2.2045193 14.795715 6.1285877c3.9240723 3.9240685 6.1285706 9.246246 6.1285706 14.795715l0 131.0333c0 11.556168 -9.368103 20.924301 -20.924286 20.924301l-83.6947 0c-11.556183 0 -20.924316 -9.368134 -20.924316 -20.924301z" fill-rule="evenodd"></path><path stroke="#000000" stroke-width="1.0" stroke-linejoin="round" stroke-linecap="butt" d="m303.1706 45.966297l0 0c0 -11.556171 9.368134 -20.924303 20.924316 -20.924303l83.6947 0l0 0c5.549469 0 10.871643 2.2045193 14.795715 6.1285877c3.9240723 3.9240685 6.1285706 9.246246 6.1285706 14.795715l0 131.0333c0 11.556168 -9.368103 20.924301 -20.924286 20.924301l-83.6947 0c-11.556183 0 -20.924316 -9.368134 -20.924316 -20.924301z" fill-rule="evenodd"></path><path fill="#000000" fill-opacity="0.0" d="m332.77692 40.44357l66.33069 0l0 101.82677l-66.33069 0z" fill-rule="evenodd"></path><path fill="#000000" d="m387.05463 120.962944q-2.296875 5.28125 -5.125 9.171867q-2.828125 3.890625 -5.953125 6.53125q-3.125 2.640625 -6.296875 3.890625q-3.15625 1.234375 -6.140625 1.234375q-2.96875 0 -5.421875 -1.34375q-2.453125 -1.34375 -4.28125 -4.03125q-1.8125 -2.6875 -2.921875 -6.625q-1.09375 -3.9374924 -1.09375 -9.218742q0 -9.015625 2.484375 -17.796875q2.5 -8.78125 7.015625 -15.78125q4.515625 -7.015625 10.703125 -11.28125q6.1875 -4.28125 13.671875 -4.28125q2.3125 0 4.421875 0.96875q2.109375 0.953125 3.640625 2.6875q1.546875 1.71875 2.453125 4.21875q0.921875 2.484375 0.921875 5.5625q0 0.578125 0 1.203125q0 0.625 -0.109375 1.296875l-12.5625 3.359375q-1.15625 -2.40625 -2.6875 -2.40625q-1.546875 0 -3.234375 1.78125q-1.671875 1.765625 -3.3125 4.609375q-1.625 2.828125 -3.15625 6.328125q-1.53125 3.5 -2.6875 7.0625q-1.15625 3.546875 -1.875 6.765625q-0.71875 3.21875 -0.71875 5.234375q0 3.0625 0.8125 4.3125q0.828125 1.25 2.171875 1.25q1.046875 0 2.390625 -0.8125q1.34375 -0.8125 2.5 -2.109375q1.15625 -1.296875 2.109375 -2.921875q0.953125 -1.640625 1.34375 -3.28125l10.9375 4.421875z" fill-rule="nonzero"></path><path fill="#cfe2f3" d="m125.543304 67.67191l157.48032 0l0 101.826775l-157.48032 0z" fill-rule="evenodd"></path><path stroke="#000000" stroke-width="1.0" stroke-linejoin="round" stroke-linecap="butt" d="m125.543304 67.67191l157.48032 0l0 101.826775l-157.48032 0z" fill-rule="evenodd"></path><path fill="#000000" fill-opacity="0.0" d="m125.543304 67.67191l194.20471 0l0 87.62205l-194.20471 0z" fill-rule="evenodd"></path><path fill="#000000" d="m152.19955 136.06505q-1.96875 0 -4.1875 0.125q-2.203125 0.125 -4.453125 0.390625q-2.234375 0.25 -4.375 0.671875q-2.140625 0.40625 -3.875 0.984375q0.390625 -2.875 0.890625 -6.390625q0.515625 -3.53125 1.1875 -7.2968826q0.671875 -3.78125 1.34375 -7.625q0.671875 -3.84375 1.375 -7.359375q1.609375 -8.375 3.390625 -17.078125l11.203125 -1.484375q-1.71875 7.421875 -3.328125 14.46875q-0.703125 3.015625 -1.40625 6.25q-0.703125 3.21875 -1.34375 6.296875q-0.640625 3.0625 -1.15625 5.953125q-0.5 2.875 -0.828125 5.1093826q1.609375 -0.125 3.421875 -0.15625q1.828125 -0.03125 3.234375 -0.03125q0.0625 1.21875 0.1875 2.40625q0.140625 1.1875 0.296875 2.140625q0.15625 0.953125 0.25 1.703125q0.09375 0.734375 0.15625 0.984375q-0.5 0 -0.984375 -0.03125q-0.484375 -0.03125 -1.0 -0.03125zm37.515472 -32.578133q0 5.25 -1.125 9.890625q-1.125 4.640625 -2.984375 8.515625q-1.84375 3.859375 -4.3125 6.9062576q-2.46875 3.046875 -5.15625 5.1875q-2.6875 2.140625 -5.4375 3.265625q-2.75 1.109375 -5.25 1.109375q-2.109375 0 -3.84375 -0.796875q-1.71875 -0.796875 -3.0 -2.359375q-1.28125 -1.578125 -2.015625 -4.03125q-0.734375 -2.46875 -0.734375 -5.9218826q0 -3.59375 0.890625 -7.5625q0.90625 -3.96875 2.4375 -7.859375q1.53125 -3.90625 3.765625 -7.421875q2.25 -3.53125 4.9375 -6.25q2.6875 -2.71875 5.75 -4.3125q3.078125 -1.609375 6.40625 -1.609375q2.890625 0 4.765625 1.1875q1.890625 1.1875 2.9375 3.078125q1.0625 1.875 1.515625 4.25q0.453125 2.375 0.453125 4.734375zm-24.328125 20.09375q0 0.703125 0.25 1.484375q0.265625 0.765625 0.703125 1.34375q0.453125 0.5625 1.125 0.984375q0.671875 0.421875 1.453125 0.421875q2.875 0 5.109375 -1.984375q2.25 -1.984375 3.71875 -4.859375q1.46875 -2.890625 2.265625 -6.15625q0.796875 -3.265625 0.796875 -5.953125q0 -0.765625 -0.09375 -1.65625q-0.09375 -0.90625 -0.390625 -1.671875q-0.28125 -0.765625 -0.890625 -1.3125q-0.609375 -0.546875 -1.625 -0.546875q-2.046875 0 -3.78125 1.03125q-1.71875 1.015625 -3.09375 2.71875q-1.375 1.703125 -2.40625 3.84375q-1.03125 2.140625 -1.765625 4.359375q-0.734375 2.203125 -1.0625 4.3125q-0.3125 2.109375 -0.3125 3.640625zm47.36444 0.765625q-1.53125 3.53125 -3.421875 6.1250076q-1.890625 2.578125 -3.96875 4.34375q-2.078125 1.765625 -4.203125 2.59375q-2.109375 0.828125 -4.09375 0.828125q-1.984375 0 -3.609375 -0.890625q-1.625 -0.890625 -2.84375 -2.6875q-1.21875 -1.796875 -1.953125 -4.421875q-0.734375 -2.6250076 -0.734375 -6.1406326q0 -6.015625 1.65625 -11.875q1.671875 -5.859375 4.671875 -10.53125q3.015625 -4.671875 7.140625 -7.515625q4.125 -2.84375 9.125 -2.84375q1.53125 0 2.9375 0.640625q1.40625 0.640625 2.421875 1.796875q1.03125 1.140625 1.640625 2.8125q0.609375 1.65625 0.609375 3.703125q0 0.390625 0 0.8125q0 0.40625 -0.0625 0.859375l-8.390625 2.234375q-0.765625 -1.59375 -1.78125 -1.59375q-1.03125 0 -2.15625 1.1875q-1.109375 1.171875 -2.203125 3.0625q-1.078125 1.890625 -2.109375 4.234375q-1.03125 2.328125 -1.796875 4.703125q-0.765625 2.359375 -1.25 4.5q-0.46875 2.140625 -0.46875 3.484375q0 2.0625 0.53125 2.890625q0.546875 0.828125 1.453125 0.828125q0.703125 0 1.59375 -0.546875q0.890625 -0.546875 1.65625 -1.40625q0.78125 -0.859375 1.421875 -1.9375q0.640625 -1.09375 0.890625 -2.1875l7.296875 2.9375zm-0.37904358 13.828133q1.921875 -8.953125 3.578125 -17.406258q0.640625 -3.640625 1.34375 -7.546875q0.703125 -3.90625 1.3125 -7.75q0.609375 -3.84375 1.078125 -7.453125q0.484375 -3.625 0.75 -6.5625q1.46875 0.125 3.328125 0.234375q1.859375 0.09375 3.453125 0.21875q1.921875 0.125 3.84375 0.125q-0.0625 0.25 -0.203125 0.953125q-0.125 0.703125 -0.3125 1.703125q-0.1875 0.984375 -0.421875 2.203125q-0.21875 1.21875 -0.46875 2.4375q-0.515625 2.8125 -1.15625 6.328125l0.375 -0.0625q0.640625 -1.015625 1.828125 -2.84375q1.1875 -1.828125 2.46875 -3.875q1.28125 -2.046875 2.484375 -3.9375q1.21875 -1.890625 2.0625 -3.234375q3.1875 -0.25 6.390625 -0.5625q3.203125 -0.328125 6.40625 -0.84375q-3.015625 4.03125 -5.828125 7.9375q-1.21875 1.671875 -2.46875 3.46875q-1.234375 1.78125 -2.453125 3.515625q-1.21875 1.71875 -2.28125 3.328125q-1.046875 1.59375 -1.875 2.9375q1.40625 6.46875 3.3125 12.484375q1.921875 6.0156326 3.90625 12.281258q-1.46875 -0.0625 -3.0 -0.09375q-1.53125 -0.03125 -3.015625 -0.03125q-1.84375 0 -3.578125 0.03125q-1.734375 0.03125 -3.578125 0.09375q-0.578125 -4.15625 -1.25 -8.734383q-0.671875 -4.578125 -1.25 -8.734375l-1.15625 1.34375q-0.453125 1.921875 -1.0 4.734375q-0.53125 2.8125 -1.046875 5.4375076q-0.578125 3.078125 -1.21875 6.34375l-10.359375 1.53125z" fill-rule="nonzero"></path><path fill="#cfe2f3" d="m428.7139 60.569553l135.55905 0l0 101.82678l-135.55905 0z" fill-rule="evenodd"></path><path stroke="#000000" stroke-width="1.0" stroke-linejoin="round" stroke-linecap="butt" d="m428.7139 60.569553l135.55905 0l0 101.82678l-135.55905 0z" fill-rule="evenodd"></path><path fill="#000000" fill-opacity="0.0" d="m428.7139 60.569553l194.20474 0l0 87.622055l-194.20474 0z" fill-rule="evenodd"></path><path fill="#000000" d="m438.22952 131.13455q1.78125 -8.953117 3.453125 -17.468742q0.640625 -3.640625 1.34375 -7.578125q0.703125 -3.9375 1.3125 -7.78125q0.609375 -3.84375 1.140625 -7.453125q0.546875 -3.625 0.875 -6.5625q1.46875 0.0625 2.71875 0.15625q1.25 0.09375 2.46875 0.171875q1.21875 0.0625 2.453125 0.09375q1.25 0.03125 2.734375 0.03125q-1.09375 4.53125 -2.15625 9.078125q-1.046875 4.546875 -1.953125 9.15625l6.34375 -0.703125q0.890625 -4.546875 1.59375 -8.796875q0.703125 -4.265625 1.859375 -8.796875q1.46875 -0.265625 3.265625 -0.421875q1.796875 -0.15625 3.328125 -0.28125q1.53125 -0.140625 2.578125 -0.234375q1.0625 -0.09375 1.0625 -0.09375q-0.890625 2.875 -1.6875 6.3125q-0.796875 3.421875 -1.578125 7.109375q-0.765625 3.671875 -1.46875 7.453125q-0.703125 3.765625 -1.28125 7.15625q-1.40625 8.125 -2.625 16.640617l-9.984375 1.15625q0.84375 -3.8437424 1.484375 -7.4999924q0.640625 -3.0625 1.3125 -6.390625q0.671875 -3.328125 1.046875 -5.703125l-6.203125 0.578125q-0.453125 2.4375 -1.0625 5.640625q-0.609375 3.1875 -1.109375 6.078125q-0.703125 3.453125 -1.40625 6.9062424l-9.859375 2.046875zm51.25522 -1.40625q-1.59375 0.25 -3.515625 0.578125q-1.921875 0.3125 -3.453125 0.578125q0.25 -2.109375 0.515625 -4.1562424q0.1875 -1.796875 0.34375 -3.578125q0.15625 -1.796875 0.296875 -3.078125l-5.578125 0l-2.5625 9.203117q-1.40625 0.203125 -3.328125 0.421875q-1.90625 0.21875 -3.578125 0.421875q-2.046875 0.25 -4.03125 0.5q2.5625 -8.499992 5.0625 -16.765617q1.015625 -3.453125 2.125 -7.21875q1.125 -3.78125 2.25 -7.515625q1.125 -3.75 2.140625 -7.203125q1.03125 -3.46875 1.796875 -6.34375q4.359375 -0.328125 8.859375 -0.765625q4.515625 -0.453125 8.8125 -1.21875q-0.203125 2.046875 -0.421875 5.09375q-0.21875 3.03125 -0.421875 6.625q-0.1875 3.578125 -0.390625 7.484375q-0.1875 3.90625 -0.375 7.671875q-0.3125 8.828125 -0.703125 18.749992q-1.921875 0.328125 -3.84375 0.515625zm-9.84375 -16.062492q0.25 0 0.921875 -0.03125q0.671875 -0.03125 1.40625 -0.0625q0.734375 -0.03125 1.375 -0.0625q0.640625 -0.03125 0.890625 -0.09375q0 -0.390625 0.09375 -1.3125q0.109375 -0.9375 0.203125 -2.109375q0.09375 -1.1875 0.21875 -2.59375q0.125 -1.421875 0.265625 -2.765625q0.25 -3.25 0.640625 -7.03125l0.375 -5.5625l-0.953125 0.0625l-1.484375 5.5l-3.953125 16.0625zm24.88382 16.062492q-0.578125 0 -2.28125 0.171875q-1.6875 0.15625 -3.484375 0.375q-1.78125 0.21875 -3.21875 0.421875q-1.4375 0.1875 -1.578125 0.25q0.640625 -2.75 1.3125 -6.1093674q0.671875 -3.359375 1.375 -7.03125q0.71875 -3.6875 1.34375 -7.46875q0.640625 -3.78125 1.21875 -7.296875q1.34375 -8.1875 2.6875 -16.828125l9.984375 -1.609375q-1.46875 8.578125 -2.875 16.84375q-0.578125 3.515625 -1.1875 7.296875q-0.609375 3.765625 -1.21875 7.484375q-0.59375 3.703125 -1.109375 7.203125q-0.515625 3.484375 -0.96875 6.2968674zm2.3654785 1.59375q1.921875 -9.203117 3.65625 -17.843742q0.640625 -3.71875 1.375 -7.6875q0.7344055 -3.96875 1.3750305 -7.828125q0.640625 -3.875 1.15625 -7.421875q0.515625 -3.5625 0.765625 -6.4375q0.828125 0.0625 1.40625 0.0625q0.578125 0 1.34375 0q0.890625 0 2.171875 -0.03125q1.28125 -0.03125 2.5625 -0.09375q1.28125 -0.078125 2.75 -0.140625q0.90625 4.484375 1.609375 8.640625q0.703125 3.65625 1.4375 7.5q0.734375 3.828125 1.3125 6.515625q0.25 -1.28125 0.5625 -2.96875q0.328125 -1.703125 0.703125 -3.546875q0.390625 -1.859375 0.734375 -3.75q0.359375 -1.890625 0.75 -3.75q0.890625 -4.15625 1.859375 -8.578125l7.796875 -0.953125q-2.171875 9.796875 -3.828125 18.5625q-0.765625 3.78125 -1.515625 7.65625q-0.734375 3.859375 -1.375 7.421875q-0.640625 3.546875 -1.09375 6.59375q-0.4375 3.03125 -0.6875 5.0781174q-0.203125 0 -1.515625 0.296875q-1.3125 0.28125 -3.015625 0.671875q-1.6875 0.375 -3.390625 0.765625q-1.6875 0.375 -2.515625 0.703125q-0.390625 -5.1249924 -0.828125 -9.734367q-0.1875 -1.984375 -0.421875 -4.0625q-0.21875 -2.078125 -0.484375 -4.0q-0.25 -1.921875 -0.515625 -3.578125q-0.25 -1.671875 -0.5 -2.890625q-0.1875 1.21875 -0.515625 2.828125q-0.3125 1.59375 -0.640625 3.390625q-0.3125 1.78125 -0.640625 3.734375q-0.3125 1.953125 -0.703125 3.75q-0.828125 4.28125 -1.796875 8.953117l-9.3437805 2.171875z" fill-rule="nonzero"></path><path fill="#000000" fill-opacity="0.0" d="m62.771652 32.144356c0 -15.980171 75.79527 -31.074518 151.59055 -31.960346c75.79527 -0.88582677 151.59056 12.436866 151.59056 24.873734" fill-rule="evenodd"></path><path stroke="#000000" stroke-width="1.0" stroke-linejoin="round" stroke-linecap="butt" d="m62.771652 32.144356c0 -15.980171 75.79527 -31.074518 151.59055 -31.960346c37.897644 -0.44291338 75.79527 2.6663034 104.21852 7.440856c14.211609 2.3872766 26.054626 5.1908875 34.344727 8.174983c2.0725098 0.74602413 3.9229736 1.5033274 5.532898 2.2682276c0.80493164 0.3824501 1.5497742 0.7667999 2.2321472 1.1525841c0.341156 0.19289589 0.66674805 0.38614655 0.9764099 0.5797024c0.15481567 0.09677696 0.30566406 0.19363022 0.45251465 0.29055214l0.2392273 0.16243362" fill-rule="evenodd"></path><path fill="#000000" stroke="#000000" stroke-width="1.0" stroke-linecap="butt" d="m361.03604 21.242773l4.0410156 2.6443768l-1.3958435 -4.623226z" fill-rule="evenodd"></path></g></svg>

